<svg width="532" height="13" viewBox="0 0 532 13" fill="none" xmlns="http://www.w3.org/2000/svg">
<path d="M1.95242 7.85937C1.67242 7.85937 1.43642 7.76737 1.24442 7.58337C1.06042 7.39937 0.968418 7.15537 0.968418 6.85137C0.968418 6.56337 1.06042 6.32737 1.24442 6.14337C1.43642 5.95137 1.67242 5.85537 1.95242 5.85537C2.24042 5.85537 2.47642 5.94737 2.66042 6.13137C2.84442 6.31537 2.93642 6.55537 2.93642 6.85137C2.93642 7.15537 2.84442 7.39937 2.66042 7.58337C2.47642 7.76737 2.24042 7.85937 1.95242 7.85937ZM10.887 7.63137H9.72298V10.1994H8.22298V3.79137H9.72298V6.38337H10.923L12.819 3.79137H14.427L12.099 6.87537L14.583 10.1994H12.819L10.887 7.63137ZM21.4457 3.79137L18.4457 10.7154C18.1657 11.4114 17.8257 11.8994 17.4257 12.1794C17.0257 12.4674 16.5417 12.6114 15.9737 12.6114C15.6537 12.6114 15.3377 12.5594 15.0257 12.4554C14.7137 12.3514 14.4577 12.2074 14.2577 12.0234L14.8577 10.9194C15.0017 11.0554 15.1697 11.1634 15.3617 11.2434C15.5617 11.3234 15.7617 11.3634 15.9617 11.3634C16.2257 11.3634 16.4417 11.2954 16.6097 11.1594C16.7857 11.0234 16.9457 10.7954 17.0897 10.4754L17.1977 10.2234L14.4017 3.79137H15.9617L17.9777 8.53137L20.0057 3.79137H21.4457ZM28.0171 3.79137V10.1994H26.5171V5.06337H24.1171L24.0571 6.33537C24.0171 7.18337 23.9371 7.89537 23.8171 8.47137C23.7051 9.03937 23.5091 9.49137 23.2291 9.82737C22.9571 10.1554 22.5811 10.3194 22.1011 10.3194C21.8771 10.3194 21.6011 10.2754 21.2731 10.1874L21.3451 8.92737C21.4571 8.95137 21.5531 8.96337 21.6331 8.96337C21.9371 8.96337 22.1651 8.84337 22.3171 8.60337C22.4691 8.35537 22.5651 8.06337 22.6051 7.72737C22.6531 7.38337 22.6931 6.89537 22.7251 6.26337L22.8331 3.79137H28.0171ZM33.3732 5.90337C34.1892 5.90337 34.8132 6.08737 35.2452 6.45537C35.6852 6.82337 35.9052 7.34337 35.9052 8.01537C35.9052 8.71937 35.6652 9.26337 35.1852 9.64737C34.7052 10.0314 34.0292 10.2194 33.1572 10.2114L30.1572 10.1994V3.79137H31.6572V5.89137L33.3732 5.90337ZM33.0252 9.10737C33.4652 9.11537 33.8012 9.02337 34.0332 8.83137C34.2652 8.63937 34.3812 8.35937 34.3812 7.99137C34.3812 7.63137 34.2692 7.36737 34.0452 7.19937C33.8212 7.03137 33.4812 6.94337 33.0252 6.93537L31.6572 6.92337V9.09537L33.0252 9.10737ZM41.8219 5.06337H39.5779V10.1994H38.0779V5.06337H35.8219V3.79137H41.8219V5.06337ZM49.1249 3.79137L46.1249 10.7154C45.8449 11.4114 45.5049 11.8994 45.1049 12.1794C44.7049 12.4674 44.2209 12.6114 43.6529 12.6114C43.3329 12.6114 43.0169 12.5594 42.7049 12.4554C42.3929 12.3514 42.1369 12.2074 41.9369 12.0234L42.5369 10.9194C42.6809 11.0554 42.8489 11.1634 43.0409 11.2434C43.2409 11.3234 43.4409 11.3634 43.6409 11.3634C43.9049 11.3634 44.1209 11.2954 44.2889 11.1594C44.4649 11.0234 44.6249 10.7954 44.7689 10.4754L44.8769 10.2234L42.0809 3.79137H43.6409L45.6569 8.53137L47.6849 3.79137H49.1249ZM53.8387 3.71937C54.4627 3.71937 55.0187 3.85537 55.5067 4.12737C56.0027 4.39937 56.3907 4.78337 56.6707 5.27937C56.9507 5.77537 57.0907 6.34737 57.0907 6.99537C57.0907 7.64337 56.9507 8.21937 56.6707 8.72337C56.3907 9.21937 56.0027 9.60337 55.5067 9.87537C55.0187 10.1474 54.4627 10.2834 53.8387 10.2834C52.9747 10.2834 52.2907 9.99537 51.7867 9.41937V12.5274H50.2867V3.79137H51.7147V4.63137C51.9627 4.32737 52.2667 4.09937 52.6267 3.94737C52.9947 3.79537 53.3987 3.71937 53.8387 3.71937ZM53.6707 8.99937C54.2227 8.99937 54.6747 8.81537 55.0267 8.44737C55.3867 8.07937 55.5667 7.59537 55.5667 6.99537C55.5667 6.39537 55.3867 5.91137 55.0267 5.54337C54.6747 5.17537 54.2227 4.99137 53.6707 4.99137C53.3107 4.99137 52.9867 5.07537 52.6987 5.24337C52.4107 5.40337 52.1827 5.63537 52.0147 5.93937C51.8467 6.24337 51.7627 6.59537 51.7627 6.99537C51.7627 7.39537 51.8467 7.74737 52.0147 8.05137C52.1827 8.35537 52.4107 8.59137 52.6987 8.75937C52.9867 8.91937 53.3107 8.99937 53.6707 8.99937ZM61.0096 3.71937C61.9536 3.71937 62.6736 3.94737 63.1696 4.40337C63.6736 4.85137 63.9256 5.53137 63.9256 6.44337V10.1994H62.5096V9.41937C62.3256 9.69937 62.0616 9.91537 61.7176 10.0674C61.3816 10.2114 60.9736 10.2834 60.4936 10.2834C60.0136 10.2834 59.5936 10.2034 59.2336 10.0434C58.8736 9.87537 58.5936 9.64737 58.3936 9.35937C58.2016 9.06337 58.1056 8.73137 58.1056 8.36337C58.1056 7.78737 58.3176 7.32737 58.7416 6.98337C59.1736 6.63137 59.8496 6.45537 60.7696 6.45537H62.4256V6.35937C62.4256 5.91137 62.2896 5.56737 62.0176 5.32737C61.7536 5.08737 61.3576 4.96737 60.8296 4.96737C60.4696 4.96737 60.1136 5.02337 59.7616 5.13537C59.4176 5.24737 59.1256 5.40337 58.8856 5.60337L58.2976 4.51137C58.6336 4.25537 59.0376 4.05937 59.5096 3.92337C59.9816 3.78737 60.4816 3.71937 61.0096 3.71937ZM60.8056 9.19137C61.1816 9.19137 61.5136 9.10737 61.8016 8.93937C62.0976 8.76337 62.3056 8.51537 62.4256 8.19537V7.45137H60.8776C60.0136 7.45137 59.5816 7.73537 59.5816 8.30337C59.5816 8.57537 59.6896 8.79137 59.9056 8.95137C60.1216 9.11137 60.4216 9.19137 60.8056 9.19137ZM70.0341 7.85937C69.7541 7.85937 69.5181 7.76737 69.3261 7.58337C69.1421 7.39937 69.0501 7.15537 69.0501 6.85137C69.0501 6.56337 69.1421 6.32737 69.3261 6.14337C69.5181 5.95137 69.7541 5.85537 70.0341 5.85537C70.3221 5.85537 70.5581 5.94737 70.7421 6.13137C70.9261 6.31537 71.0181 6.55537 71.0181 6.85137C71.0181 7.15537 70.9261 7.39937 70.7421 7.58337C70.5581 7.76737 70.3221 7.85937 70.0341 7.85937ZM79.8567 3.71937C80.4807 3.71937 81.0367 3.85537 81.5247 4.12737C82.0207 4.39937 82.4087 4.78337 82.6887 5.27937C82.9687 5.77537 83.1087 6.34737 83.1087 6.99537C83.1087 7.64337 82.9687 8.21937 82.6887 8.72337C82.4087 9.21937 82.0207 9.60337 81.5247 9.87537C81.0367 10.1474 80.4807 10.2834 79.8567 10.2834C78.9927 10.2834 78.3087 9.99537 77.8047 9.41937V12.5274H76.3047V3.79137H77.7327V4.63137C77.9807 4.32737 78.2847 4.09937 78.6447 3.94737C79.0127 3.79537 79.4167 3.71937 79.8567 3.71937ZM79.6887 8.99937C80.2407 8.99937 80.6927 8.81537 81.0447 8.44737C81.4047 8.07937 81.5847 7.59537 81.5847 6.99537C81.5847 6.39537 81.4047 5.91137 81.0447 5.54337C80.6927 5.17537 80.2407 4.99137 79.6887 4.99137C79.3287 4.99137 79.0047 5.07537 78.7167 5.24337C78.4287 5.40337 78.2007 5.63537 78.0327 5.93937C77.8647 6.24337 77.7807 6.59537 77.7807 6.99537C77.7807 7.39537 77.8647 7.74737 78.0327 8.05137C78.2007 8.35537 78.4287 8.59137 78.7167 8.75937C79.0047 8.91937 79.3287 8.99937 79.6887 8.99937ZM90.7216 7.03137C90.7216 7.13537 90.7136 7.28337 90.6976 7.47537H85.6696C85.7576 7.94737 85.9856 8.32337 86.3536 8.60337C86.7296 8.87537 87.1936 9.01137 87.7456 9.01137C88.4496 9.01137 89.0296 8.77937 89.4856 8.31537L90.2896 9.23937C90.0016 9.58337 89.6376 9.84337 89.1976 10.0194C88.7576 10.1954 88.2616 10.2834 87.7096 10.2834C87.0056 10.2834 86.3856 10.1434 85.8496 9.86337C85.3136 9.58337 84.8976 9.19537 84.6016 8.69937C84.3136 8.19537 84.1696 7.62737 84.1696 6.99537C84.1696 6.37137 84.3096 5.81137 84.5896 5.31537C84.8776 4.81137 85.2736 4.41937 85.7776 4.13937C86.2816 3.85937 86.8496 3.71937 87.4816 3.71937C88.1056 3.71937 88.6616 3.85937 89.1496 4.13937C89.6456 4.41137 90.0296 4.79937 90.3016 5.30337C90.5816 5.79937 90.7216 6.37537 90.7216 7.03137ZM87.4816 4.91937C87.0016 4.91937 86.5936 5.06337 86.2576 5.35137C85.9296 5.63137 85.7296 6.00737 85.6576 6.47937H89.2936C89.2296 6.01537 89.0336 5.63937 88.7056 5.35137C88.3776 5.06337 87.9696 4.91937 87.4816 4.91937ZM97.1262 6.86337C97.9182 7.10337 98.3142 7.61537 98.3142 8.39937C98.3142 8.97537 98.0982 9.41937 97.6662 9.73137C97.2342 10.0434 96.5942 10.1994 95.7462 10.1994H92.4822V3.79137H95.6142C96.3982 3.79137 97.0102 3.93537 97.4502 4.22337C97.8902 4.51137 98.1102 4.91937 98.1102 5.44737C98.1102 5.77537 98.0222 6.05937 97.8462 6.29937C97.6782 6.53937 97.4382 6.72737 97.1262 6.86337ZM93.9102 6.46737H95.4822C96.2582 6.46737 96.6462 6.19937 96.6462 5.66337C96.6462 5.14337 96.2582 4.88337 95.4822 4.88337H93.9102V6.46737ZM95.6262 9.10737C96.4502 9.10737 96.8622 8.83937 96.8622 8.30337C96.8622 8.02337 96.7662 7.81537 96.5742 7.67937C96.3822 7.53537 96.0822 7.46337 95.6742 7.46337H93.9102V9.10737H95.6262ZM103.248 5.90337C104.064 5.90337 104.688 6.08737 105.12 6.45537C105.56 6.82337 105.78 7.34337 105.78 8.01537C105.78 8.71937 105.54 9.26337 105.06 9.64737C104.58 10.0314 103.904 10.2194 103.032 10.2114L100.032 10.1994V3.79137H101.532V5.89137L103.248 5.90337ZM102.9 9.10737C103.34 9.11537 103.676 9.02337 103.908 8.83137C104.14 8.63937 104.256 8.35937 104.256 7.99137C104.256 7.63137 104.144 7.36737 103.92 7.19937C103.696 7.03137 103.356 6.94337 102.9 6.93537L101.532 6.92337V9.09537L102.9 9.10737ZM113.074 3.71937C113.714 3.71937 114.286 3.85937 114.79 4.13937C115.294 4.41137 115.69 4.79937 115.978 5.30337C116.266 5.79937 116.41 6.36337 116.41 6.99537C116.41 7.62737 116.266 8.19537 115.978 8.69937C115.69 9.19537 115.294 9.58337 114.79 9.86337C114.286 10.1434 113.714 10.2834 113.074 10.2834C112.514 10.2834 112.002 10.1754 111.538 9.95937C111.074 9.73537 110.69 9.42337 110.386 9.02337C110.082 8.61537 109.886 8.15137 109.798 7.63137H108.718V10.1994H107.218V3.79137H108.718V6.27537H109.822C109.918 5.77137 110.118 5.32737 110.422 4.94337C110.726 4.55137 111.106 4.25137 111.562 4.04337C112.018 3.82737 112.522 3.71937 113.074 3.71937ZM113.074 9.01137C113.426 9.01137 113.742 8.93137 114.022 8.77137C114.302 8.60337 114.522 8.36737 114.682 8.06337C114.842 7.75137 114.922 7.39537 114.922 6.99537C114.922 6.38737 114.746 5.90337 114.394 5.54337C114.05 5.17537 113.61 4.99137 113.074 4.99137C112.538 4.99137 112.098 5.17537 111.754 5.54337C111.41 5.90337 111.238 6.38737 111.238 6.99537C111.238 7.60337 111.41 8.09137 111.754 8.45937C112.106 8.82737 112.546 9.01137 113.074 9.01137ZM122.135 7.85937C121.855 7.85937 121.619 7.76737 121.427 7.58337C121.243 7.39937 121.151 7.15537 121.151 6.85137C121.151 6.56337 121.243 6.32737 121.427 6.14337C121.619 5.95137 121.855 5.85537 122.135 5.85537C122.423 5.85537 122.659 5.94737 122.843 6.13137C123.027 6.31537 123.119 6.55537 123.119 6.85137C123.119 7.15537 123.027 7.39937 122.843 7.58337C122.659 7.76737 122.423 7.85937 122.135 7.85937ZM130.793 3.71937C131.737 3.71937 132.457 3.94737 132.953 4.40337C133.457 4.85137 133.709 5.53137 133.709 6.44337V10.1994H132.293V9.41937C132.109 9.69937 131.845 9.91537 131.501 10.0674C131.165 10.2114 130.757 10.2834 130.277 10.2834C129.797 10.2834 129.377 10.2034 129.017 10.0434C128.657 9.87537 128.377 9.64737 128.177 9.35937C127.985 9.06337 127.889 8.73137 127.889 8.36337C127.889 7.78737 128.101 7.32737 128.525 6.98337C128.957 6.63137 129.633 6.45537 130.553 6.45537H132.209V6.35937C132.209 5.91137 132.073 5.56737 131.801 5.32737C131.537 5.08737 131.141 4.96737 130.613 4.96737C130.253 4.96737 129.897 5.02337 129.545 5.13537C129.201 5.24737 128.909 5.40337 128.669 5.60337L128.081 4.51137C128.417 4.25537 128.821 4.05937 129.293 3.92337C129.765 3.78737 130.265 3.71937 130.793 3.71937ZM130.589 9.19137C130.965 9.19137 131.297 9.10737 131.585 8.93937C131.881 8.76337 132.089 8.51537 132.209 8.19537V7.45137H130.661C129.797 7.45137 129.365 7.73537 129.365 8.30337C129.365 8.57537 129.473 8.79137 129.689 8.95137C129.905 9.11137 130.205 9.19137 130.589 9.19137ZM135.685 3.79137H137.185V6.39537H140.413V3.79137H141.913V10.1994H140.413V7.66737H137.185V10.1994H135.685V3.79137ZM146.432 3.71937C147.376 3.71937 148.096 3.94737 148.592 4.40337C149.096 4.85137 149.348 5.53137 149.348 6.44337V10.1994H147.932V9.41937C147.748 9.69937 147.484 9.91537 147.14 10.0674C146.804 10.2114 146.396 10.2834 145.916 10.2834C145.436 10.2834 145.016 10.2034 144.656 10.0434C144.296 9.87537 144.016 9.64737 143.816 9.35937C143.624 9.06337 143.528 8.73137 143.528 8.36337C143.528 7.78737 143.74 7.32737 144.164 6.98337C144.596 6.63137 145.272 6.45537 146.192 6.45537H147.848V6.35937C147.848 5.91137 147.712 5.56737 147.44 5.32737C147.176 5.08737 146.78 4.96737 146.252 4.96737C145.892 4.96737 145.536 5.02337 145.184 5.13537C144.84 5.24737 144.548 5.40337 144.308 5.60337L143.72 4.51137C144.056 4.25537 144.46 4.05937 144.932 3.92337C145.404 3.78737 145.904 3.71937 146.432 3.71937ZM146.228 9.19137C146.604 9.19137 146.936 9.10737 147.224 8.93937C147.52 8.76337 147.728 8.51537 147.848 8.19537V7.45137H146.3C145.436 7.45137 145.004 7.73537 145.004 8.30337C145.004 8.57537 145.112 8.79137 145.328 8.95137C145.544 9.11137 145.844 9.19137 146.228 9.19137ZM157.132 3.79137V10.1994H155.632V5.06337H153.232L153.172 6.33537C153.132 7.18337 153.052 7.89537 152.932 8.47137C152.82 9.03937 152.624 9.49137 152.344 9.82737C152.072 10.1554 151.696 10.3194 151.216 10.3194C150.992 10.3194 150.716 10.2754 150.388 10.1874L150.46 8.92737C150.572 8.95137 150.668 8.96337 150.748 8.96337C151.052 8.96337 151.28 8.84337 151.432 8.60337C151.584 8.35537 151.68 8.06337 151.72 7.72737C151.768 7.38337 151.808 6.89537 151.84 6.26337L151.948 3.79137H157.132ZM159.272 3.79137H160.772V8.01537L164.312 3.79137H165.68V10.1994H164.18V5.97537L160.652 10.1994H159.272V3.79137ZM172.894 5.06337H170.65V10.1994H169.15V5.06337H166.894V3.79137H172.894V5.06337ZM174.102 3.79137H175.602V8.01537L179.142 3.79137H180.51V10.1994H179.01V5.97537L175.482 10.1994H174.102V3.79137ZM185.312 7.63137H184.148V10.1994H182.648V3.79137H184.148V6.38337H185.348L187.244 3.79137H188.852L186.524 6.87537L189.008 10.1994H187.244L185.312 7.63137ZM192.456 3.71937C193.4 3.71937 194.12 3.94737 194.616 4.40337C195.12 4.85137 195.372 5.53137 195.372 6.44337V10.1994H193.956V9.41937C193.772 9.69937 193.508 9.91537 193.164 10.0674C192.828 10.2114 192.42 10.2834 191.94 10.2834C191.46 10.2834 191.04 10.2034 190.68 10.0434C190.32 9.87537 190.04 9.64737 189.84 9.35937C189.648 9.06337 189.552 8.73137 189.552 8.36337C189.552 7.78737 189.764 7.32737 190.188 6.98337C190.62 6.63137 191.296 6.45537 192.216 6.45537H193.872V6.35937C193.872 5.91137 193.736 5.56737 193.464 5.32737C193.2 5.08737 192.804 4.96737 192.276 4.96737C191.916 4.96737 191.56 5.02337 191.208 5.13537C190.864 5.24737 190.572 5.40337 190.332 5.60337L189.744 4.51137C190.08 4.25537 190.484 4.05937 190.956 3.92337C191.428 3.78737 191.928 3.71937 192.456 3.71937ZM192.252 9.19137C192.628 9.19137 192.96 9.10737 193.248 8.93937C193.544 8.76337 193.752 8.51537 193.872 8.19537V7.45137H192.324C191.46 7.45137 191.028 7.73537 191.028 8.30337C191.028 8.57537 191.136 8.79137 191.352 8.95137C191.568 9.11137 191.868 9.19137 192.252 9.19137ZM201.481 7.85937C201.201 7.85937 200.965 7.76737 200.773 7.58337C200.589 7.39937 200.497 7.15537 200.497 6.85137C200.497 6.56337 200.589 6.32737 200.773 6.14337C200.965 5.95137 201.201 5.85537 201.481 5.85537C201.769 5.85537 202.005 5.94737 202.189 6.13137C202.373 6.31537 202.465 6.55537 202.465 6.85137C202.465 7.15537 202.373 7.39937 202.189 7.58337C202.005 7.76737 201.769 7.85937 201.481 7.85937ZM213.896 3.79137V10.1994H212.408V5.06337H209.252V10.1994H207.752V3.79137H213.896ZM222.04 7.03137C222.04 7.13537 222.032 7.28337 222.016 7.47537H216.988C217.076 7.94737 217.304 8.32337 217.672 8.60337C218.048 8.87537 218.512 9.01137 219.064 9.01137C219.768 9.01137 220.348 8.77937 220.804 8.31537L221.608 9.23937C221.32 9.58337 220.956 9.84337 220.516 10.0194C220.076 10.1954 219.58 10.2834 219.028 10.2834C218.324 10.2834 217.704 10.1434 217.168 9.86337C216.632 9.58337 216.216 9.19537 215.92 8.69937C215.632 8.19537 215.488 7.62737 215.488 6.99537C215.488 6.37137 215.628 5.81137 215.908 5.31537C216.196 4.81137 216.592 4.41937 217.096 4.13937C217.6 3.85937 218.168 3.71937 218.8 3.71937C219.424 3.71937 219.98 3.85937 220.468 4.13937C220.964 4.41137 221.348 4.79937 221.62 5.30337C221.9 5.79937 222.04 6.37537 222.04 7.03137ZM218.8 4.91937C218.32 4.91937 217.912 5.06337 217.576 5.35137C217.248 5.63137 217.048 6.00737 216.976 6.47937H220.612C220.548 6.01537 220.352 5.63937 220.024 5.35137C219.696 5.06337 219.288 4.91937 218.8 4.91937ZM228.642 5.06337H226.398V10.1994H224.898V5.06337H222.642V3.79137H228.642V5.06337ZM235.569 7.03137C235.569 7.13537 235.561 7.28337 235.545 7.47537H230.517C230.605 7.94737 230.833 8.32337 231.201 8.60337C231.577 8.87537 232.041 9.01137 232.593 9.01137C233.297 9.01137 233.877 8.77937 234.333 8.31537L235.137 9.23937C234.849 9.58337 234.485 9.84337 234.045 10.0194C233.605 10.1954 233.109 10.2834 232.557 10.2834C231.853 10.2834 231.233 10.1434 230.697 9.86337C230.161 9.58337 229.745 9.19537 229.449 8.69937C229.161 8.19537 229.017 7.62737 229.017 6.99537C229.017 6.37137 229.157 5.81137 229.437 5.31537C229.725 4.81137 230.121 4.41937 230.625 4.13937C231.129 3.85937 231.697 3.71937 232.329 3.71937C232.953 3.71937 233.509 3.85937 233.997 4.13937C234.493 4.41137 234.877 4.79937 235.149 5.30337C235.429 5.79937 235.569 6.37537 235.569 7.03137ZM232.329 4.91937C231.849 4.91937 231.441 5.06337 231.105 5.35137C230.777 5.63137 230.577 6.00737 230.505 6.47937H234.141C234.077 6.01537 233.881 5.63937 233.553 5.35137C233.225 5.06337 232.817 4.91937 232.329 4.91937ZM240.881 3.71937C241.505 3.71937 242.061 3.85537 242.549 4.12737C243.045 4.39937 243.433 4.78337 243.713 5.27937C243.993 5.77537 244.133 6.34737 244.133 6.99537C244.133 7.64337 243.993 8.21937 243.713 8.72337C243.433 9.21937 243.045 9.60337 242.549 9.87537C242.061 10.1474 241.505 10.2834 240.881 10.2834C240.017 10.2834 239.333 9.99537 238.829 9.41937V12.5274H237.329V3.79137H238.757V4.63137C239.005 4.32737 239.309 4.09937 239.669 3.94737C240.037 3.79537 240.441 3.71937 240.881 3.71937ZM240.713 8.99937C241.265 8.99937 241.717 8.81537 242.069 8.44737C242.429 8.07937 242.609 7.59537 242.609 6.99537C242.609 6.39537 242.429 5.91137 242.069 5.54337C241.717 5.17537 241.265 4.99137 240.713 4.99137C240.353 4.99137 240.029 5.07537 239.741 5.24337C239.453 5.40337 239.225 5.63537 239.057 5.93937C238.889 6.24337 238.805 6.59537 238.805 6.99537C238.805 7.39537 238.889 7.74737 239.057 8.05137C239.225 8.35537 239.453 8.59137 239.741 8.75937C240.029 8.91937 240.353 8.99937 240.713 8.99937ZM249.214 4.10337C249.822 4.10337 250.358 4.23537 250.822 4.49937C251.286 4.75537 251.646 5.11537 251.902 5.57937C252.166 6.04337 252.298 6.57537 252.298 7.17537C252.298 7.79137 252.154 8.33937 251.866 8.81937C251.578 9.29137 251.174 9.65937 250.654 9.92337C250.134 10.1874 249.542 10.3194 248.878 10.3194C247.766 10.3194 246.906 9.95137 246.298 9.21537C245.69 8.47937 245.386 7.41937 245.386 6.03537C245.386 4.74737 245.662 3.72737 246.214 2.97537C246.766 2.22337 247.61 1.72737 248.746 1.48737L251.722 0.851371L251.938 2.19537L249.238 2.74737C248.462 2.90737 247.882 3.17937 247.498 3.56337C247.114 3.94737 246.89 4.48737 246.826 5.18337C247.114 4.83937 247.462 4.57537 247.87 4.39137C248.278 4.19937 248.726 4.10337 249.214 4.10337ZM248.914 9.10737C249.466 9.10737 249.91 8.93137 250.246 8.57937C250.59 8.21937 250.762 7.76337 250.762 7.21137C250.762 6.65937 250.59 6.21537 250.246 5.87937C249.91 5.54337 249.466 5.37537 248.914 5.37537C248.354 5.37537 247.902 5.54337 247.558 5.87937C247.214 6.21537 247.042 6.65937 247.042 7.21137C247.042 7.77137 247.214 8.22737 247.558 8.57937C247.91 8.93137 248.362 9.10737 248.914 9.10737ZM259.742 3.79137L256.742 10.7154C256.462 11.4114 256.122 11.8994 255.722 12.1794C255.322 12.4674 254.838 12.6114 254.27 12.6114C253.95 12.6114 253.634 12.5594 253.322 12.4554C253.01 12.3514 252.754 12.2074 252.554 12.0234L253.154 10.9194C253.298 11.0554 253.466 11.1634 253.658 11.2434C253.858 11.3234 254.058 11.3634 254.258 11.3634C254.522 11.3634 254.738 11.2954 254.906 11.1594C255.082 11.0234 255.242 10.7954 255.386 10.4754L255.494 10.2234L252.698 3.79137H254.258L256.274 8.53137L258.302 3.79137H259.742ZM264.456 3.71937C265.08 3.71937 265.636 3.85537 266.124 4.12737C266.62 4.39937 267.008 4.78337 267.288 5.27937C267.568 5.77537 267.708 6.34737 267.708 6.99537C267.708 7.64337 267.568 8.21937 267.288 8.72337C267.008 9.21937 266.62 9.60337 266.124 9.87537C265.636 10.1474 265.08 10.2834 264.456 10.2834C263.592 10.2834 262.908 9.99537 262.404 9.41937V12.5274H260.904V3.79137H262.332V4.63137C262.58 4.32737 262.884 4.09937 263.244 3.94737C263.612 3.79537 264.016 3.71937 264.456 3.71937ZM264.288 8.99937C264.84 8.99937 265.292 8.81537 265.644 8.44737C266.004 8.07937 266.184 7.59537 266.184 6.99537C266.184 6.39537 266.004 5.91137 265.644 5.54337C265.292 5.17537 264.84 4.99137 264.288 4.99137C263.928 4.99137 263.604 5.07537 263.316 5.24337C263.028 5.40337 262.8 5.63537 262.632 5.93937C262.464 6.24337 262.38 6.59537 262.38 6.99537C262.38 7.39537 262.464 7.74737 262.632 8.05137C262.8 8.35537 263.028 8.59137 263.316 8.75937C263.604 8.91937 263.928 8.99937 264.288 8.99937ZM274.241 5.06337H270.821V10.1994H269.321V3.79137H274.241V5.06337ZM279.585 7.85937C279.305 7.85937 279.069 7.76737 278.877 7.58337C278.693 7.39937 278.601 7.15537 278.601 6.85137C278.601 6.56337 278.693 6.32737 278.877 6.14337C279.069 5.95137 279.305 5.85537 279.585 5.85537C279.873 5.85537 280.109 5.94737 280.293 6.13137C280.477 6.31537 280.569 6.55537 280.569 6.85137C280.569 7.15537 280.477 7.39937 280.293 7.58337C280.109 7.76737 279.873 7.85937 279.585 7.85937ZM285.856 3.79137H287.356V8.01537L290.896 3.79137H292.264V10.1994H290.764V5.97537L287.236 10.1994H285.856V3.79137ZM297.317 10.2834C296.653 10.2834 296.057 10.1434 295.529 9.86337C295.001 9.58337 294.589 9.19537 294.293 8.69937C293.997 8.19537 293.849 7.62737 293.849 6.99537C293.849 6.36337 293.997 5.79937 294.293 5.30337C294.589 4.80737 294.997 4.41937 295.517 4.13937C296.045 3.85937 296.645 3.71937 297.317 3.71937C297.949 3.71937 298.501 3.84737 298.973 4.10337C299.453 4.35937 299.813 4.72737 300.053 5.20737L298.901 5.87937C298.717 5.58337 298.485 5.36337 298.205 5.21937C297.933 5.06737 297.633 4.99137 297.305 4.99137C296.745 4.99137 296.281 5.17537 295.913 5.54337C295.545 5.90337 295.361 6.38737 295.361 6.99537C295.361 7.60337 295.541 8.09137 295.901 8.45937C296.269 8.81937 296.737 8.99937 297.305 8.99937C297.633 8.99937 297.933 8.92737 298.205 8.78337C298.485 8.63137 298.717 8.40737 298.901 8.11137L300.053 8.78337C299.805 9.26337 299.441 9.63537 298.961 9.89937C298.489 10.1554 297.941 10.2834 297.317 10.2834ZM304.158 7.63137H302.994V10.1994H301.494V3.79137H302.994V6.38337H304.194L306.09 3.79137H307.698L305.37 6.87537L307.854 10.1994H306.09L304.158 7.63137ZM314.717 3.79137L311.717 10.7154C311.437 11.4114 311.097 11.8994 310.697 12.1794C310.297 12.4674 309.813 12.6114 309.245 12.6114C308.925 12.6114 308.609 12.5594 308.297 12.4554C307.985 12.3514 307.729 12.2074 307.529 12.0234L308.129 10.9194C308.273 11.0554 308.441 11.1634 308.633 11.2434C308.833 11.3234 309.033 11.3634 309.233 11.3634C309.497 11.3634 309.713 11.2954 309.881 11.1594C310.057 11.0234 310.217 10.7954 310.361 10.4754L310.469 10.2234L307.673 3.79137H309.233L311.249 8.53137L313.277 3.79137H314.717ZM318.619 10.2834C317.955 10.2834 317.359 10.1434 316.831 9.86337C316.303 9.58337 315.891 9.19537 315.595 8.69937C315.299 8.19537 315.151 7.62737 315.151 6.99537C315.151 6.36337 315.299 5.79937 315.595 5.30337C315.891 4.80737 316.299 4.41937 316.819 4.13937C317.347 3.85937 317.947 3.71937 318.619 3.71937C319.251 3.71937 319.803 3.84737 320.275 4.10337C320.755 4.35937 321.115 4.72737 321.355 5.20737L320.203 5.87937C320.019 5.58337 319.787 5.36337 319.507 5.21937C319.235 5.06737 318.935 4.99137 318.607 4.99137C318.047 4.99137 317.583 5.17537 317.215 5.54337C316.847 5.90337 316.663 6.38737 316.663 6.99537C316.663 7.60337 316.843 8.09137 317.203 8.45937C317.571 8.81937 318.039 8.99937 318.607 8.99937C318.935 8.99937 319.235 8.92737 319.507 8.78337C319.787 8.63137 320.019 8.40737 320.203 8.11137L321.355 8.78337C321.107 9.26337 320.743 9.63537 320.263 9.89937C319.791 10.1554 319.243 10.2834 318.619 10.2834ZM325.618 10.2834C324.954 10.2834 324.358 10.1434 323.83 9.86337C323.302 9.58337 322.89 9.19537 322.594 8.69937C322.298 8.19537 322.15 7.62737 322.15 6.99537C322.15 6.36337 322.298 5.79937 322.594 5.30337C322.89 4.80737 323.298 4.41937 323.818 4.13937C324.346 3.85937 324.946 3.71937 325.618 3.71937C326.25 3.71937 326.802 3.84737 327.274 4.10337C327.754 4.35937 328.114 4.72737 328.354 5.20737L327.202 5.87937C327.018 5.58337 326.786 5.36337 326.506 5.21937C326.234 5.06737 325.934 4.99137 325.606 4.99137C325.046 4.99137 324.582 5.17537 324.214 5.54337C323.846 5.90337 323.662 6.38737 323.662 6.99537C323.662 7.60337 323.842 8.09137 324.202 8.45937C324.57 8.81937 325.038 8.99937 325.606 8.99937C325.934 8.99937 326.234 8.92737 326.506 8.78337C326.786 8.63137 327.018 8.40737 327.202 8.11137L328.354 8.78337C328.106 9.26337 327.742 9.63537 327.262 9.89937C326.79 10.1554 326.242 10.2834 325.618 10.2834ZM334.812 5.06337H332.568V10.1994H331.068V5.06337H328.812V3.79137H334.812V5.06337ZM340.664 6.86337C341.456 7.10337 341.852 7.61537 341.852 8.39937C341.852 8.97537 341.636 9.41937 341.204 9.73137C340.772 10.0434 340.132 10.1994 339.284 10.1994H336.02V3.79137H339.152C339.936 3.79137 340.548 3.93537 340.988 4.22337C341.428 4.51137 341.648 4.91937 341.648 5.44737C341.648 5.77537 341.56 6.05937 341.384 6.29937C341.216 6.53937 340.976 6.72737 340.664 6.86337ZM337.448 6.46737H339.02C339.796 6.46737 340.184 6.19937 340.184 5.66337C340.184 5.14337 339.796 4.88337 339.02 4.88337H337.448V6.46737ZM339.164 9.10737C339.988 9.10737 340.4 8.83937 340.4 8.30337C340.4 8.02337 340.304 7.81537 340.112 7.67937C339.92 7.53537 339.62 7.46337 339.212 7.46337H337.448V9.10737H339.164ZM346.426 10.2834C345.778 10.2834 345.194 10.1434 344.674 9.86337C344.154 9.58337 343.746 9.19537 343.45 8.69937C343.162 8.19537 343.018 7.62737 343.018 6.99537C343.018 6.36337 343.162 5.79937 343.45 5.30337C343.746 4.80737 344.154 4.41937 344.674 4.13937C345.194 3.85937 345.778 3.71937 346.426 3.71937C347.082 3.71937 347.67 3.85937 348.19 4.13937C348.71 4.41937 349.114 4.80737 349.402 5.30337C349.698 5.79937 349.846 6.36337 349.846 6.99537C349.846 7.62737 349.698 8.19537 349.402 8.69937C349.114 9.19537 348.71 9.58337 348.19 9.86337C347.67 10.1434 347.082 10.2834 346.426 10.2834ZM346.426 8.99937C346.978 8.99937 347.434 8.81537 347.794 8.44737C348.154 8.07937 348.334 7.59537 348.334 6.99537C348.334 6.39537 348.154 5.91137 347.794 5.54337C347.434 5.17537 346.978 4.99137 346.426 4.99137C345.874 4.99137 345.418 5.17537 345.058 5.54337C344.706 5.91137 344.53 6.39537 344.53 6.99537C344.53 7.59537 344.706 8.07937 345.058 8.44737C345.418 8.81537 345.874 8.99937 346.426 8.99937ZM355.58 7.85937C355.3 7.85937 355.064 7.76737 354.872 7.58337C354.688 7.39937 354.596 7.15537 354.596 6.85137C354.596 6.56337 354.688 6.32737 354.872 6.14337C355.064 5.95137 355.3 5.85537 355.58 5.85537C355.868 5.85537 356.104 5.94737 356.288 6.13137C356.472 6.31537 356.564 6.55537 356.564 6.85137C356.564 7.15537 356.472 7.39937 356.288 7.58337C356.104 7.76737 355.868 7.85937 355.58 7.85937ZM366.494 6.86337C367.286 7.10337 367.682 7.61537 367.682 8.39937C367.682 8.97537 367.466 9.41937 367.034 9.73137C366.602 10.0434 365.962 10.1994 365.114 10.1994H361.85V3.79137H364.982C365.766 3.79137 366.378 3.93537 366.818 4.22337C367.258 4.51137 367.478 4.91937 367.478 5.44737C367.478 5.77537 367.39 6.05937 367.214 6.29937C367.046 6.53937 366.806 6.72737 366.494 6.86337ZM363.278 6.46737H364.85C365.626 6.46737 366.014 6.19937 366.014 5.66337C366.014 5.14337 365.626 4.88337 364.85 4.88337H363.278V6.46737ZM364.994 9.10737C365.818 9.10737 366.23 8.83937 366.23 8.30337C366.23 8.02337 366.134 7.81537 365.942 7.67937C365.75 7.53537 365.45 7.46337 365.042 7.46337H363.278V9.10737H364.994ZM372.256 10.2834C371.608 10.2834 371.024 10.1434 370.504 9.86337C369.984 9.58337 369.576 9.19537 369.28 8.69937C368.992 8.19537 368.848 7.62737 368.848 6.99537C368.848 6.36337 368.992 5.79937 369.28 5.30337C369.576 4.80737 369.984 4.41937 370.504 4.13937C371.024 3.85937 371.608 3.71937 372.256 3.71937C372.912 3.71937 373.5 3.85937 374.02 4.13937C374.54 4.41937 374.944 4.80737 375.232 5.30337C375.528 5.79937 375.676 6.36337 375.676 6.99537C375.676 7.62737 375.528 8.19537 375.232 8.69937C374.944 9.19537 374.54 9.58337 374.02 9.86337C373.5 10.1434 372.912 10.2834 372.256 10.2834ZM372.256 8.99937C372.808 8.99937 373.264 8.81537 373.624 8.44737C373.984 8.07937 374.164 7.59537 374.164 6.99537C374.164 6.39537 373.984 5.91137 373.624 5.54337C373.264 5.17537 372.808 4.99137 372.256 4.99137C371.704 4.99137 371.248 5.17537 370.888 5.54337C370.536 5.91137 370.36 6.39537 370.36 6.99537C370.36 7.59537 370.536 8.07937 370.888 8.44737C371.248 8.81537 371.704 8.99937 372.256 8.99937ZM381.922 6.86337C382.714 7.10337 383.11 7.61537 383.11 8.39937C383.11 8.97537 382.894 9.41937 382.462 9.73137C382.03 10.0434 381.39 10.1994 380.542 10.1994H377.278V3.79137H380.41C381.194 3.79137 381.806 3.93537 382.246 4.22337C382.686 4.51137 382.906 4.91937 382.906 5.44737C382.906 5.77537 382.818 6.05937 382.642 6.29937C382.474 6.53937 382.234 6.72737 381.922 6.86337ZM378.706 6.46737H380.278C381.054 6.46737 381.442 6.19937 381.442 5.66337C381.442 5.14337 381.054 4.88337 380.278 4.88337H378.706V6.46737ZM380.422 9.10737C381.246 9.10737 381.658 8.83937 381.658 8.30337C381.658 8.02337 381.562 7.81537 381.37 7.67937C381.178 7.53537 380.878 7.46337 380.47 7.46337H378.706V9.10737H380.422ZM390.636 3.79137V10.1994H389.136V5.06337H386.736L386.676 6.33537C386.636 7.18337 386.556 7.89537 386.436 8.47137C386.324 9.03937 386.128 9.49137 385.848 9.82737C385.576 10.1554 385.2 10.3194 384.72 10.3194C384.496 10.3194 384.22 10.2754 383.892 10.1874L383.964 8.92737C384.076 8.95137 384.172 8.96337 384.252 8.96337C384.556 8.96337 384.784 8.84337 384.936 8.60337C385.088 8.35537 385.184 8.06337 385.224 7.72737C385.272 7.38337 385.312 6.89537 385.344 6.26337L385.452 3.79137H390.636ZM398.776 7.03137C398.776 7.13537 398.768 7.28337 398.752 7.47537H393.724C393.812 7.94737 394.04 8.32337 394.408 8.60337C394.784 8.87537 395.248 9.01137 395.8 9.01137C396.504 9.01137 397.084 8.77937 397.54 8.31537L398.344 9.23937C398.056 9.58337 397.692 9.84337 397.252 10.0194C396.812 10.1954 396.316 10.2834 395.764 10.2834C395.06 10.2834 394.44 10.1434 393.904 9.86337C393.368 9.58337 392.952 9.19537 392.656 8.69937C392.368 8.19537 392.224 7.62737 392.224 6.99537C392.224 6.37137 392.364 5.81137 392.644 5.31537C392.932 4.81137 393.328 4.41937 393.832 4.13937C394.336 3.85937 394.904 3.71937 395.536 3.71937C396.16 3.71937 396.716 3.85937 397.204 4.13937C397.7 4.41137 398.084 4.79937 398.356 5.30337C398.636 5.79937 398.776 6.37537 398.776 7.03137ZM395.536 4.91937C395.056 4.91937 394.648 5.06337 394.312 5.35137C393.984 5.63137 393.784 6.00737 393.712 6.47937H397.348C397.284 6.01537 397.088 5.63937 396.76 5.35137C396.432 5.06337 396.024 4.91937 395.536 4.91937ZM405.972 3.79137V10.1994H404.472V7.71537C403.856 8.01137 403.212 8.15937 402.54 8.15937C401.716 8.15937 401.084 7.97137 400.644 7.59537C400.204 7.21137 399.984 6.62737 399.984 5.84337V3.79137H401.484V5.74737C401.484 6.15537 401.604 6.45937 401.844 6.65937C402.084 6.85937 402.424 6.95937 402.864 6.95937C403.424 6.95937 403.96 6.83937 404.472 6.59937V3.79137H405.972ZM414.109 7.03137C414.109 7.13537 414.101 7.28337 414.085 7.47537H409.057C409.145 7.94737 409.373 8.32337 409.741 8.60337C410.117 8.87537 410.581 9.01137 411.133 9.01137C411.837 9.01137 412.417 8.77937 412.873 8.31537L413.677 9.23937C413.389 9.58337 413.025 9.84337 412.585 10.0194C412.145 10.1954 411.649 10.2834 411.097 10.2834C410.393 10.2834 409.773 10.1434 409.237 9.86337C408.701 9.58337 408.285 9.19537 407.989 8.69937C407.701 8.19537 407.557 7.62737 407.557 6.99537C407.557 6.37137 407.697 5.81137 407.977 5.31537C408.265 4.81137 408.661 4.41937 409.165 4.13937C409.669 3.85937 410.237 3.71937 410.869 3.71937C411.493 3.71937 412.049 3.85937 412.537 4.13937C413.033 4.41137 413.417 4.79937 413.689 5.30337C413.969 5.79937 414.109 6.37537 414.109 7.03137ZM410.869 4.91937C410.389 4.91937 409.981 5.06337 409.645 5.35137C409.317 5.63137 409.117 6.00737 409.045 6.47937H412.681C412.617 6.01537 412.421 5.63937 412.093 5.35137C411.765 5.06337 411.357 4.91937 410.869 4.91937ZM415.87 3.79137H417.37V6.39537H420.598V3.79137H422.098V10.1994H420.598V7.66737H417.37V10.1994H415.87V3.79137ZM424.228 3.79137H425.728V6.39537H428.956V3.79137H430.456V10.1994H428.956V7.66737H425.728V10.1994H424.228V3.79137ZM435.443 10.2834C434.795 10.2834 434.211 10.1434 433.691 9.86337C433.171 9.58337 432.763 9.19537 432.467 8.69937C432.179 8.19537 432.035 7.62737 432.035 6.99537C432.035 6.36337 432.179 5.79937 432.467 5.30337C432.763 4.80737 433.171 4.41937 433.691 4.13937C434.211 3.85937 434.795 3.71937 435.443 3.71937C436.099 3.71937 436.687 3.85937 437.207 4.13937C437.727 4.41937 438.131 4.80737 438.419 5.30337C438.715 5.79937 438.863 6.36337 438.863 6.99537C438.863 7.62737 438.715 8.19537 438.419 8.69937C438.131 9.19537 437.727 9.58337 437.207 9.86337C436.687 10.1434 436.099 10.2834 435.443 10.2834ZM435.443 8.99937C435.995 8.99937 436.451 8.81537 436.811 8.44737C437.171 8.07937 437.351 7.59537 437.351 6.99537C437.351 6.39537 437.171 5.91137 436.811 5.54337C436.451 5.17537 435.995 4.99137 435.443 4.99137C434.891 4.99137 434.435 5.17537 434.075 5.54337C433.723 5.91137 433.547 6.39537 433.547 6.99537C433.547 7.59537 433.723 8.07937 434.075 8.44737C434.435 8.81537 434.891 8.99937 435.443 8.99937ZM443.38 10.2834C442.716 10.2834 442.12 10.1434 441.592 9.86337C441.064 9.58337 440.652 9.19537 440.356 8.69937C440.06 8.19537 439.912 7.62737 439.912 6.99537C439.912 6.36337 440.06 5.79937 440.356 5.30337C440.652 4.80737 441.06 4.41937 441.58 4.13937C442.108 3.85937 442.708 3.71937 443.38 3.71937C444.012 3.71937 444.564 3.84737 445.036 4.10337C445.516 4.35937 445.876 4.72737 446.116 5.20737L444.964 5.87937C444.78 5.58337 444.548 5.36337 444.268 5.21937C443.996 5.06737 443.696 4.99137 443.368 4.99137C442.808 4.99137 442.344 5.17537 441.976 5.54337C441.608 5.90337 441.424 6.38737 441.424 6.99537C441.424 7.60337 441.604 8.09137 441.964 8.45937C442.332 8.81937 442.8 8.99937 443.368 8.99937C443.696 8.99937 443.996 8.92737 444.268 8.78337C444.548 8.63137 444.78 8.40737 444.964 8.11137L446.116 8.78337C445.868 9.26337 445.504 9.63537 445.024 9.89937C444.552 10.1554 444.004 10.2834 443.38 10.2834ZM452.574 5.06337H450.33V10.1994H448.83V5.06337H446.574V3.79137H452.574V5.06337ZM456.999 5.90337C457.815 5.90337 458.439 6.08737 458.871 6.45537C459.311 6.82337 459.531 7.34337 459.531 8.01537C459.531 8.71937 459.291 9.26337 458.811 9.64737C458.331 10.0314 457.655 10.2194 456.783 10.2114L453.783 10.1994V3.79137H455.283V5.89137L456.999 5.90337ZM456.651 9.10737C457.091 9.11537 457.427 9.02337 457.659 8.83137C457.891 8.63937 458.007 8.35937 458.007 7.99137C458.007 7.63137 457.895 7.36737 457.671 7.19937C457.447 7.03137 457.107 6.94337 456.651 6.93537L455.283 6.92337V9.09537L456.651 9.10737ZM465.101 7.85937C464.821 7.85937 464.585 7.76737 464.393 7.58337C464.209 7.39937 464.117 7.15537 464.117 6.85137C464.117 6.56337 464.209 6.32737 464.393 6.14337C464.585 5.95137 464.821 5.85537 465.101 5.85537C465.389 5.85537 465.625 5.94737 465.809 6.13137C465.993 6.31537 466.085 6.55537 466.085 6.85137C466.085 7.15537 465.993 7.39937 465.809 7.58337C465.625 7.76737 465.389 7.85937 465.101 7.85937ZM473.76 3.71937C474.704 3.71937 475.424 3.94737 475.92 4.40337C476.424 4.85137 476.676 5.53137 476.676 6.44337V10.1994H475.26V9.41937C475.076 9.69937 474.812 9.91537 474.468 10.0674C474.132 10.2114 473.724 10.2834 473.244 10.2834C472.764 10.2834 472.344 10.2034 471.984 10.0434C471.624 9.87537 471.344 9.64737 471.144 9.35937C470.952 9.06337 470.856 8.73137 470.856 8.36337C470.856 7.78737 471.068 7.32737 471.492 6.98337C471.924 6.63137 472.6 6.45537 473.52 6.45537H475.176V6.35937C475.176 5.91137 475.04 5.56737 474.768 5.32737C474.504 5.08737 474.108 4.96737 473.58 4.96737C473.22 4.96737 472.864 5.02337 472.512 5.13537C472.168 5.24737 471.876 5.40337 471.636 5.60337L471.048 4.51137C471.384 4.25537 471.788 4.05937 472.26 3.92337C472.732 3.78737 473.232 3.71937 473.76 3.71937ZM473.556 9.19137C473.932 9.19137 474.264 9.10737 474.552 8.93937C474.848 8.76337 475.056 8.51537 475.176 8.19537V7.45137H473.628C472.764 7.45137 472.332 7.73537 472.332 8.30337C472.332 8.57537 472.44 8.79137 472.656 8.95137C472.872 9.11137 473.172 9.19137 473.556 9.19137ZM481.316 7.63137H480.152V10.1994H478.652V3.79137H480.152V6.38337H481.352L483.248 3.79137H484.856L482.528 6.87537L485.012 10.1994H483.248L481.316 7.63137ZM491.184 5.06337H488.94V10.1994H487.44V5.06337H485.184V3.79137H491.184V5.06337ZM492.392 3.79137H493.892V8.01537L497.432 3.79137H498.8V10.1994H497.3V5.97537L493.772 10.1994H492.392V3.79137ZM505.582 6.86337C506.374 7.10337 506.77 7.61537 506.77 8.39937C506.77 8.97537 506.554 9.41937 506.122 9.73137C505.69 10.0434 505.05 10.1994 504.202 10.1994H500.938V3.79137H504.07C504.854 3.79137 505.466 3.93537 505.906 4.22337C506.346 4.51137 506.566 4.91937 506.566 5.44737C506.566 5.77537 506.478 6.05937 506.302 6.29937C506.134 6.53937 505.894 6.72737 505.582 6.86337ZM502.366 6.46737H503.938C504.714 6.46737 505.102 6.19937 505.102 5.66337C505.102 5.14337 504.714 4.88337 503.938 4.88337H502.366V6.46737ZM504.082 9.10737C504.906 9.10737 505.318 8.83937 505.318 8.30337C505.318 8.02337 505.222 7.81537 505.03 7.67937C504.838 7.53537 504.538 7.46337 504.13 7.46337H502.366V9.10737H504.082ZM508.488 3.79137H509.988V8.01537L513.528 3.79137H514.896V10.1994H513.396V5.97537L509.868 10.1994H508.488V3.79137ZM520.779 6.86337C521.179 6.97537 521.487 7.15937 521.703 7.41537C521.927 7.66337 522.039 7.96337 522.039 8.31537C522.039 8.70737 521.907 9.05537 521.643 9.35937C521.379 9.65537 521.015 9.88737 520.551 10.0554C520.087 10.2234 519.559 10.3074 518.967 10.3074C518.471 10.3074 517.987 10.2514 517.515 10.1394C517.043 10.0194 516.615 9.85137 516.231 9.63537L516.663 8.51937C516.975 8.69537 517.327 8.83137 517.719 8.92737C518.111 9.02337 518.503 9.07137 518.895 9.07137C519.399 9.07137 519.791 8.99537 520.071 8.84337C520.359 8.68337 520.503 8.46737 520.503 8.19537C520.503 7.94737 520.391 7.75537 520.167 7.61937C519.951 7.48337 519.643 7.41537 519.243 7.41537H517.995V6.40737H519.123C519.499 6.40737 519.791 6.34337 519.999 6.21537C520.215 6.08737 520.323 5.90737 520.323 5.67537C520.323 5.44337 520.195 5.25937 519.939 5.12337C519.683 4.98737 519.331 4.91937 518.883 4.91937C518.243 4.91937 517.567 5.07537 516.855 5.38737L516.471 4.28337C517.311 3.89137 518.159 3.69537 519.015 3.69537C519.559 3.69537 520.047 3.77137 520.479 3.92337C520.911 4.06737 521.247 4.27537 521.487 4.54737C521.735 4.81137 521.859 5.11537 521.859 5.45937C521.859 5.77137 521.763 6.05137 521.571 6.29937C521.379 6.53937 521.115 6.72737 520.779 6.86337ZM530.016 10.1994V5.95137L527.856 9.52737H527.208L525.084 5.93937V10.1994H523.716V3.79137H525.288L527.568 7.79937L529.956 3.79137H531.36L531.372 10.1994H530.016Z" fill="rgba(249, 250, 251, 1)"/>
</svg>
